<?xml version="1.0" encoding="UTF-8" standalone="no"?>
<!DOCTYPE svg PUBLIC "-//W3C//DTD SVG 1.1//EN" "http://www.w3.org/Graphics/SVG/1.1/DTD/svg11.dtd">
<!-- Generated by Microsoft Visio, SVG Export Noise-CDF-vs-Time.svg Page-1 -->
<svg xmlns="http://www.w3.org/2000/svg" xmlns:xlink="http://www.w3.org/1999/xlink" xmlns:ev="http://www.w3.org/2001/xml-events"
		xmlns:v="http://schemas.microsoft.com/visio/2003/SVGExtensions/" width="5.19373in" height="4.46764in"
		viewBox="0 0 373.949 321.67" xml:space="preserve" color-interpolation-filters="sRGB" class="st17">
	<v:documentProperties v:langID="1033" v:viewMarkup="false">
		<v:userDefs>
			<v:ud v:nameU="msvNoAutoConnect" v:val="VT0(1):26"/>
		</v:userDefs>
	</v:documentProperties>

	<style type="text/css">
	<![CDATA[
		.st1 {marker-end:url(#mrkr5-7);stroke:#000000;stroke-linecap:round;stroke-linejoin:round;stroke-width:1.5}
		.st2 {fill:#000000;fill-opacity:1;stroke:#000000;stroke-opacity:1;stroke-width:0.37313432835821}
		.st3 {stroke:#000000;stroke-dasharray:5.25,3.75;stroke-linecap:round;stroke-linejoin:round;stroke-width:0.75}
		.st4 {stroke:#c05046;stroke-linecap:round;stroke-linejoin:round;stroke-width:0.75}
		.st5 {stroke:#7f7f7f;stroke-linecap:round;stroke-linejoin:round;stroke-width:0.75}
		.st6 {stroke:#7f7f7f;stroke-linecap:round;stroke-linejoin:round;stroke-width:1.5}
		.st7 {fill:none}
		.st8 {stroke:#c05046;stroke-linecap:butt;stroke-width:2.12598}
		.st9 {fill:none;stroke:none;stroke-linecap:round;stroke-linejoin:round;stroke-width:0.75}
		.st10 {fill:#000000;font-family:Calibri;font-size:1.00001em}
		.st11 {fill:#ffffff;stroke:none;stroke-linecap:round;stroke-linejoin:round;stroke-width:0.75}
		.st12 {marker-start:url(#mrkr5-133);stroke:#7f7f7f;stroke-linecap:round;stroke-linejoin:round;stroke-width:0.75}
		.st13 {fill:#7f7f7f;fill-opacity:1;stroke:#7f7f7f;stroke-opacity:1;stroke-width:0.22935779816514}
		.st14 {font-size:1em}
		.st15 {marker-start:url(#mrkr5-144);stroke:#c05046;stroke-linecap:round;stroke-linejoin:round;stroke-width:0.75}
		.st16 {fill:#c05046;fill-opacity:1;stroke:#c05046;stroke-opacity:1;stroke-width:0.22935779816514}
		.st17 {fill:none;fill-rule:evenodd;font-size:12px;overflow:visible;stroke-linecap:square;stroke-miterlimit:3}
	]]>
	</style>

	<defs id="Markers">
		<g id="lend5">
			<path d="M 2 1 L 0 0 L 1.98117 -0.993387 C 1.67173 -0.364515 1.67301 0.372641 1.98465 1.00043 " style="stroke:none"/>
		</g>
		<marker id="mrkr5-7" class="st2" v:arrowType="5" v:arrowSize="2" v:setback="4.69" refX="-4.69" orient="auto"
				markerUnits="strokeWidth" overflow="visible">
			<use xlink:href="#lend5" transform="scale(-2.68,-2.68) "/>
		</marker>
		<marker id="mrkr5-133" class="st13" v:arrowType="5" v:arrowSize="2" v:setback="7.15" refX="7.15" orient="auto"
				markerUnits="strokeWidth" overflow="visible">
			<use xlink:href="#lend5" transform="scale(4.36) "/>
		</marker>
		<marker id="mrkr5-144" class="st16" v:arrowType="5" v:arrowSize="2" v:setback="7.15" refX="7.15" orient="auto"
				markerUnits="strokeWidth" overflow="visible">
			<use xlink:href="#lend5" transform="scale(4.36) "/>
		</marker>
	</defs>
	<g v:mID="0" v:index="1" v:groupContext="foregroundPage">
		<title>Page-1</title>
		<v:pageProperties v:drawingScale="1" v:pageScale="1" v:drawingUnits="19" v:shadowOffsetX="9" v:shadowOffsetY="-9"/>
		<g id="shape56-1" v:mID="56" v:groupContext="shape" transform="translate(-122.96,-46.4787) rotate(-26.5651)">
			<title>Sheet.56</title>
			<path d="M0 321.67 L274.71 321.67" class="st1"/>
		</g>
		<g id="shape1008-8" v:mID="1008" v:groupContext="shape" transform="translate(300.708,470.652) rotate(180)">
			<title>Sheet.1008</title>
			<path d="M0 321.67 L99 321.67" class="st3"/>
		</g>
		<g id="shape1010-11" v:mID="1010" v:groupContext="shape" transform="translate(-25.7475,-132.473) rotate(-45)">
			<title>Sheet.1010</title>
			<path d="M0 321.67 L9.64 321.67" class="st4"/>
		</g>
		<g id="shape1011-14" v:mID="1011" v:groupContext="shape" transform="translate(-25.7475,-118.973) rotate(-45)">
			<title>Sheet.1011</title>
			<path d="M0 321.67 L14.66 321.67" class="st4"/>
		</g>
		<g id="shape1012-17" v:mID="1012" v:groupContext="shape" transform="translate(-25.7475,-104.973) rotate(-45)">
			<title>Sheet.1012</title>
			<path d="M0 321.67 L23.43 321.67" class="st4"/>
		</g>
		<g id="shape1013-20" v:mID="1013" v:groupContext="shape" transform="translate(-26.3737,-91.2112) rotate(-45.1579)">
			<title>Sheet.1013</title>
			<path d="M0 321.67 L34.46 321.67" class="st4"/>
		</g>
		<g id="shape1014-23" v:mID="1014" v:groupContext="shape" transform="translate(-14.4975,-89.7234) rotate(-45)">
			<title>Sheet.1014</title>
			<path d="M0 321.67 L31.38 321.67" class="st4"/>
		</g>
		<g id="shape1015-26" v:mID="1015" v:groupContext="shape" transform="translate(-25.7475,-145.973) rotate(-45)">
			<title>Sheet.1015</title>
			<path d="M0 321.67 L5.84 321.67" class="st4"/>
		</g>
		<g id="shape1016-29" v:mID="1016" v:groupContext="shape" transform="translate(201.708,-183.938)">
			<title>Sheet.1016</title>
			<path d="M0 321.67 L78.54 321.67" class="st5"/>
		</g>
		<g id="shape1017-32" v:mID="1017" v:groupContext="shape" transform="translate(0.363746,-91.168) rotate(-44.6349)">
			<title>Sheet.1017</title>
			<path d="M0 321.67 L26.15 321.67" class="st4"/>
		</g>
		<g id="shape1021-35" v:mID="1021" v:groupContext="shape" transform="translate(12.7379,-90.1988) rotate(-44.8801)">
			<title>Sheet.1021</title>
			<path d="M0 321.67 L21.01 321.67" class="st4"/>
		</g>
		<g id="shape1007-38" v:mID="1007" v:groupContext="shape" transform="translate(-119.962,265.982) rotate(-90)">
			<title>Sheet.1007</title>
			<path d="M0 321.67 L254.09 321.67" class="st3"/>
		</g>
		<g id="shape66-41" v:mID="66" v:groupContext="shape" transform="translate(-160.394,19.7489) rotate(-39.5881)">
			<title>Sheet.66</title>
			<path d="M0 284.48 C31.67 291.91 66 298.16 101.79 305.82 C130.34 311.92 159.82 318.91 185.11 321.35 C234.63 326.12 268.03
						 313.42 303.64 284.48" class="st6"/>
		</g>
		<g id="group1018-44" transform="translate(524.361,61.2316) rotate(90)" v:mID="1018" v:groupContext="group">
			<title>g1723</title>
			<g id="shape1019-45" v:mID="1019" v:groupContext="shape">
				<title>path1328</title>
				<path d="M0 321.67 C14.53 318.33 19.05 319.07 35.46 312.89 C51.18 306.97 56.86 280.32 64.1 263.76 C68.65 253.34 77.67
							 238.14 88 238.23 L0 321.67 Z" class="st7"/>
				<path d="M0 321.67 C14.53 318.33 19.05 319.07 35.46 312.89 C51.18 306.97 56.86 280.32 64.1 263.76 C68.65 253.34 77.67
							 238.14 88 238.23" class="st8"/>
			</g>
			<g id="shape1020-48" v:mID="1020" v:groupContext="shape" transform="translate(88.0037,0)">
				<title>path1328-1</title>
				<path d="M88 321.67 C73.47 318.33 68.95 319.07 52.54 312.89 C36.83 306.97 31.14 280.32 23.91 263.76 C19.35 253.34
							 10.33 238.14 0 238.23 L88 321.67 Z" class="st7"/>
				<path d="M88 321.67 C73.47 318.33 68.95 319.07 52.54 312.89 C36.83 306.97 31.14 280.32 23.91 263.76 C19.35 253.34
							 10.33 238.14 0 238.23" class="st8"/>
			</g>
		</g>
		<g id="shape59-51" v:mID="59" v:groupContext="shape" transform="translate(-300.775,241.232) rotate(-90)">
			<title>Sheet.59</title>
			<path d="M0 321.67 L156.4 321.67" class="st1"/>
		</g>
		<g id="shape60-56" v:mID="60" v:groupContext="shape" transform="translate(11.895,-242.438)">
			<title>Sheet.60</title>
			<desc>V</desc>
			<v:textBlock v:margins="rect(4,4,4,4)"/>
			<v:textRect cx="9.875" cy="311.67" width="19.76" height="20"/>
			<rect x="0" y="301.67" width="19.75" height="20" class="st9"/>
			<text x="6.47" y="315.27" class="st10" v:langID="1033"><v:paragraph v:horizAlign="1"/><v:tabList/>V</text>		</g>
		<g id="shape62-59" v:mID="62" v:groupContext="shape" transform="translate(272.895,-204.438)">
			<title>Sheet.62</title>
			<desc>t</desc>
			<v:textBlock v:margins="rect(4,4,4,4)"/>
			<v:textRect cx="9.875" cy="311.67" width="19.76" height="20"/>
			<rect x="0" y="301.67" width="19.75" height="20" class="st9"/>
			<text x="7.87" y="315.27" class="st10" v:langID="1033"><v:paragraph v:horizAlign="1"/><v:tabList/>t</text>		</g>
		<g id="group1005-62" transform="translate(117.645,-11.895)" v:mID="1005" v:groupContext="group">
			<title>Sheet.1005</title>
			<g id="shape57-63" v:mID="57" v:groupContext="shape" transform="translate(-321.67,321.67) rotate(-90)">
				<title>Sheet.57</title>
				<path d="M0 321.67 L254.09 321.67" class="st3"/>
			</g>
			<g id="shape58-66" v:mID="58" v:groupContext="shape" transform="translate(99,526.34) rotate(180)">
				<title>Sheet.58</title>
				<path d="M0 321.67 L99 321.67" class="st3"/>
			</g>
			<g id="shape68-69" v:mID="68" v:groupContext="shape" transform="translate(94.9063,-109.34)">
				<title>Sheet.68</title>
				<desc>PDF</desc>
				<v:textBlock v:margins="rect(4,4,4,4)"/>
				<v:textRect cx="14.625" cy="315.068" width="29.25" height="13.203"/>
				<rect x="0" y="308.467" width="29.25" height="13.203" class="st11"/>
				<text x="5.08" y="318.67" class="st10" v:langID="1033"><v:paragraph v:horizAlign="1"/><v:tabList/>PDF</text>			</g>
			<g id="shape70-72" v:mID="70" v:groupContext="shape" transform="translate(-227.455,-76.785) rotate(-45)">
				<title>Sheet.70</title>
				<path d="M0 321.67 L9.64 321.67" class="st4"/>
			</g>
			<g id="shape71-75" v:mID="71" v:groupContext="shape" transform="translate(-227.455,-63.285) rotate(-45)">
				<title>Sheet.71</title>
				<path d="M0 321.67 L14.66 321.67" class="st4"/>
			</g>
			<g id="shape72-78" v:mID="72" v:groupContext="shape" transform="translate(-227.455,-49.285) rotate(-45)">
				<title>Sheet.72</title>
				<path d="M0 321.67 L23.43 321.67" class="st4"/>
			</g>
			<g id="shape73-81" v:mID="73" v:groupContext="shape" transform="translate(-227.455,-36.285) rotate(-45)">
				<title>Sheet.73</title>
				<path d="M0 321.67 L34.37 321.67" class="st4"/>
			</g>
			<g id="shape74-84" v:mID="74" v:groupContext="shape" transform="translate(-221.552,-28.8038) rotate(-44.8801)">
				<title>Sheet.74</title>
				<path d="M0 321.67 L39.53 321.67" class="st4"/>
			</g>
			<g id="shape75-87" v:mID="75" v:groupContext="shape" transform="translate(-227.455,-90.285) rotate(-45)">
				<title>Sheet.75</title>
				<path d="M0 321.67 L5.84 321.67" class="st4"/>
			</g>
			<g id="shape76-90" v:mID="76" v:groupContext="shape" transform="translate(2.5,-122.543)">
				<title>Sheet.76</title>
				<path d="M0 321.67 L80.44 321.67" class="st5"/>
			</g>
			<g id="shape1000-93" v:mID="1000" v:groupContext="shape" transform="translate(-207.709,-29.0365) rotate(-44.8214)">
				<title>Sheet.1000</title>
				<path d="M0 321.67 L34.16 321.67" class="st4"/>
			</g>
			<g id="group53-96" transform="translate(322.653,116.92) rotate(90)" v:mID="53" v:groupContext="group">
				<title>g1723</title>
				<g id="shape54-97" v:mID="54" v:groupContext="shape">
					<title>path1328</title>
					<path d="M0 321.67 C14.53 318.33 19.05 319.07 35.46 312.89 C51.18 306.97 56.86 280.32 64.1 263.76 C68.65 253.34
								 77.67 238.14 88 238.23 L0 321.67 Z" class="st7"/>
					<path d="M0 321.67 C14.53 318.33 19.05 319.07 35.46 312.89 C51.18 306.97 56.86 280.32 64.1 263.76 C68.65 253.34
								 77.67 238.14 88 238.23" class="st8"/>
				</g>
				<g id="shape55-100" v:mID="55" v:groupContext="shape" transform="translate(88.0037,0)">
					<title>path1328-1</title>
					<path d="M88 321.67 C73.47 318.33 68.95 319.07 52.54 312.89 C36.83 306.97 31.14 280.32 23.91 263.76 C19.35 253.34
								 10.33 238.14 0 238.23 L88 321.67 Z" class="st7"/>
					<path d="M88 321.67 C73.47 318.33 68.95 319.07 52.54 312.89 C36.83 306.97 31.14 280.32 23.91 263.76 C19.35 253.34
								 10.33 238.14 0 238.23" class="st8"/>
				</g>
			</g>
			<g id="shape1001-103" v:mID="1001" v:groupContext="shape" transform="translate(-194.7,-28.8038) rotate(-44.8801)">
				<title>Sheet.1001</title>
				<path d="M0 321.67 L29.1 321.67" class="st4"/>
			</g>
			<g id="shape1002-106" v:mID="1002" v:groupContext="shape" transform="translate(-181.652,-28.3284) rotate(-45)">
				<title>Sheet.1002</title>
				<path d="M0 321.67 L24.05 321.67" class="st4"/>
			</g>
			<g id="shape1003-109" v:mID="1003" v:groupContext="shape" transform="translate(-170.402,-28.3284) rotate(-45)">
				<title>Sheet.1003</title>
				<path d="M0 321.67 L17.73 321.67" class="st4"/>
			</g>
			<g id="shape1004-112" v:mID="1004" v:groupContext="shape" transform="translate(-157.97,-26.9295) rotate(-45.3513)">
				<title>Sheet.1004</title>
				<path d="M0 321.67 L9.42 321.67" class="st4"/>
			</g>
		</g>
		<g id="shape1022-115" v:mID="1022" v:groupContext="shape" transform="translate(25.19,-89.7234) rotate(-45)">
			<title>Sheet.1022</title>
			<path d="M0 321.67 L15.56 321.67" class="st4"/>
		</g>
		<g id="shape1023-118" v:mID="1023" v:groupContext="shape" transform="translate(36.44,-89.7234) rotate(-45)">
			<title>Sheet.1023</title>
			<path d="M0 321.67 L9.97 321.67" class="st4"/>
		</g>
		<g id="shape1024-121" v:mID="1024" v:groupContext="shape" transform="translate(47.69,-89.7234) rotate(-45)">
			<title>Sheet.1024</title>
			<path d="M0 321.67 L3.41 321.67" class="st4"/>
		</g>
		<g id="shape1025-124" v:mID="1025" v:groupContext="shape" transform="translate(303.27,-165.833)">
			<title>Sheet.1025</title>
			<desc>PDF</desc>
			<v:textBlock v:margins="rect(4,4,4,4)"/>
			<v:textRect cx="14.625" cy="315.068" width="29.25" height="13.203"/>
			<rect x="0" y="308.467" width="29.25" height="13.203" class="st11"/>
			<text x="5.08" y="318.67" class="st10" v:langID="1033"><v:paragraph v:horizAlign="1"/><v:tabList/>PDF</text>		</g>
		<g id="shape1026-127" v:mID="1026" v:groupContext="shape" transform="translate(166.525,-239.062) rotate(-15.9454)">
			<title>Sheet.1026</title>
			<path d="M5.36 321.67 L5.72 321.67 L32.76 321.67" class="st12"/>
		</g>
		<g id="shape1027-134" v:mID="1027" v:groupContext="shape" transform="translate(277.395,-253.938)">
			<title>Sheet.1027</title>
			<desc>Integrated Offset</desc>
			<v:textBlock v:margins="rect(4,4,4,4)"/>
			<v:textRect cx="29.8125" cy="311.67" width="59.63" height="20"/>
			<rect x="0" y="301.67" width="59.625" height="20" class="st9"/>
			<text x="4.22" y="308.07" class="st10" v:langID="1033"><v:paragraph v:horizAlign="1"/><v:tabList/>Integrated<v:lf/><tspan
						x="14.84" dy="1.2em" class="st14">Offset</tspan></text>		</g>
		<g id="shape1028-138" v:mID="1028" v:groupContext="shape" transform="translate(560.971,75.8061) rotate(71.0534)">
			<title>Sheet.1028</title>
			<path d="M5.36 321.67 L5.72 321.67 L35.93 321.67" class="st15"/>
		</g>
		<g id="shape1029-145" v:mID="1029" v:groupContext="shape" transform="translate(215.979,-96.2351) rotate(6.70984)">
			<title>Sheet.1029</title>
			<path d="M5.36 321.67 L5.72 321.67 L85.9 321.67" class="st15"/>
		</g>
		<g id="shape1030-150" v:mID="1030" v:groupContext="shape" transform="translate(268.395,-84.4309)">
			<title>Sheet.1030</title>
			<desc>Noise PDFs</desc>
			<v:textBlock v:margins="rect(4,4,4,4)"/>
			<v:textRect cx="20.25" cy="311.67" width="40.5" height="20"/>
			<rect x="0" y="301.67" width="40.5" height="20" class="st9"/>
			<text x="6.5" y="308.07" class="st10" v:langID="1033"><v:paragraph v:horizAlign="1"/><v:tabList/>Noise <tspan x="8.36"
						dy="1.2em" class="st14">PDFs</tspan></text>		</g>
		<g id="shape1031-154" v:mID="1031" v:groupContext="shape" transform="translate(153.676,-168.194) rotate(-22.6199)">
			<title>Sheet.1031</title>
			<path d="M5.36 321.67 L5.72 321.67 L43.44 321.67" class="st15"/>
		</g>
		<g id="shape1032-159" v:mID="1032" v:groupContext="shape" transform="translate(295.395,-214.438)">
			<title>Sheet.1032</title>
			<desc>Noise Probability</desc>
			<v:textBlock v:margins="rect(4,4,4,4)"/>
			<v:textRect cx="33.3294" cy="311.67" width="66.66" height="20"/>
			<rect x="0" y="301.67" width="66.6587" height="20" class="st9"/>
			<text x="19.58" y="308.07" class="st10" v:langID="1033"><v:paragraph v:horizAlign="1"/><v:tabList/>Noise <tspan
						x="6.94" dy="1.2em" class="st14">Probability</tspan></text>		</g>
	</g>
</svg>
