<?xml version="1.0" encoding="UTF-8" standalone="no"?>
<svg
   xmlns:dc="http://purl.org/dc/elements/1.1/"
   xmlns:cc="http://creativecommons.org/ns#"
   xmlns:rdf="http://www.w3.org/1999/02/22-rdf-syntax-ns#"
   xmlns:svg="http://www.w3.org/2000/svg"
   xmlns="http://www.w3.org/2000/svg"
   xmlns:sodipodi="http://sodipodi.sourceforge.net/DTD/sodipodi-0.dtd"
   xmlns:inkscape="http://www.inkscape.org/namespaces/inkscape"
   width="144.18385mm"
   height="91.933266mm"
   viewBox="0 0 144.18385 91.933266"
   version="1.1"
   id="svg1672"
   inkscape:version="1.0.2 (e86c870879, 2021-01-15)"
   sodipodi:docname="QPSK.svg"
   inkscape:export-filename="/home/nebk/Documents/grad_school/ECE 5022/Homework/HW4/8-PSK.png"
   inkscape:export-xdpi="300.052"
   inkscape:export-ydpi="300.052">
  <defs
     id="defs1666">
    <marker
       style="overflow:visible"
       id="marker30174"
       refX="0"
       refY="0"
       orient="auto"
       inkscape:stockid="Arrow1Send"
       inkscape:isstock="true">
      <path
         transform="matrix(-0.2,0,0,-0.2,-1.2,0)"
         style="fill:#2100a9;fill-opacity:1;fill-rule:evenodd;stroke:#2100a9;stroke-width:1pt;stroke-opacity:1"
         d="M 0,0 5,-5 -12.5,0 5,5 Z"
         id="path30172" />
    </marker>
    <marker
       style="overflow:visible"
       id="Arrow1Sstart"
       refX="0.0"
       refY="0.0"
       orient="auto"
       inkscape:stockid="Arrow1Sstart"
       inkscape:isstock="true">
      <path
         transform="scale(0.2) translate(6,0)"
         style="fill-rule:evenodd;stroke:#2100a9;stroke-width:1pt;stroke-opacity:1;fill:#2100a9;fill-opacity:1"
         d="M 0.0,0.0 L 5.0,-5.0 L -12.5,0.0 L 5.0,5.0 L 0.0,0.0 z "
         id="path29132" />
    </marker>
    <marker
       style="overflow:visible"
       id="Arrow2Mstart"
       refX="0.0"
       refY="0.0"
       orient="auto"
       inkscape:stockid="Arrow2Mstart"
       inkscape:isstock="true">
      <path
         transform="scale(0.6) translate(0,0)"
         d="M 8.7185878,4.0337352 L -2.2072895,0.016013256 L 8.7185884,-4.0017078 C 6.9730900,-1.6296469 6.9831476,1.6157441 8.7185878,4.0337352 z "
         style="fill-rule:evenodd;stroke-width:0.625;stroke-linejoin:round;stroke:#000000;stroke-opacity:1;fill:#000000;fill-opacity:1"
         id="path29144" />
    </marker>
    <marker
       style="overflow:visible"
       id="marker28758"
       refX="0"
       refY="0"
       orient="auto"
       inkscape:stockid="Arrow2Sstart"
       inkscape:isstock="true">
      <path
         transform="matrix(0.3,0,0,0.3,-0.69,0)"
         d="M 8.7185878,4.0337352 -2.2072895,0.01601326 8.7185884,-4.0017078 c -1.7454984,2.3720609 -1.7354408,5.6174519 -6e-7,8.035443 z"
         style="fill:#000000;fill-opacity:1;fill-rule:evenodd;stroke:#000000;stroke-width:0.625;stroke-linejoin:round;stroke-opacity:1"
         id="path28756" />
    </marker>
    <marker
       style="overflow:visible"
       id="marker4162"
       refX="0"
       refY="0"
       orient="auto"
       inkscape:stockid="Arrow1Mstart"
       inkscape:isstock="true">
      <path
         transform="matrix(0.4,0,0,0.4,4,0)"
         style="fill:#000000;fill-opacity:1;fill-rule:evenodd;stroke:#000000;stroke-width:1pt;stroke-opacity:1"
         d="M 0,0 5,-5 -12.5,0 5,5 Z"
         id="path4160" />
    </marker>
    <marker
       style="overflow:visible"
       id="Arrow1Send"
       refX="0"
       refY="0"
       orient="auto"
       inkscape:stockid="Arrow1Send"
       inkscape:isstock="true">
      <path
         transform="matrix(-0.2,0,0,-0.2,-1.2,0)"
         style="fill:#cf0000;fill-opacity:1;fill-rule:evenodd;stroke:#cf0000;stroke-width:1pt;stroke-opacity:1"
         d="M 0,0 5,-5 -12.5,0 5,5 Z"
         id="path850" />
    </marker>
    <marker
       style="overflow:visible"
       id="marker2929"
       refX="0"
       refY="0"
       orient="auto"
       inkscape:stockid="Arrow1Mend"
       inkscape:isstock="true">
      <path
         transform="matrix(-0.4,0,0,-0.4,-4,0)"
         style="fill:#000000;fill-opacity:1;fill-rule:evenodd;stroke:#000000;stroke-width:1pt;stroke-opacity:1"
         d="M 0,0 5,-5 -12.5,0 5,5 Z"
         id="path2927" />
    </marker>
    <marker
       style="overflow:visible"
       id="Arrow1Mend"
       refX="0"
       refY="0"
       orient="auto"
       inkscape:stockid="Arrow1Mend"
       inkscape:isstock="true">
      <path
         transform="matrix(-0.4,0,0,-0.4,-4,0)"
         style="fill:#000000;fill-opacity:1;fill-rule:evenodd;stroke:#000000;stroke-width:1pt;stroke-opacity:1"
         d="M 0,0 5,-5 -12.5,0 5,5 Z"
         id="path844" />
    </marker>
    <marker
       style="overflow:visible"
       id="Arrow1Mstart"
       refX="0"
       refY="0"
       orient="auto"
       inkscape:stockid="Arrow1Mstart"
       inkscape:isstock="true">
      <path
         transform="matrix(0.4,0,0,0.4,4,0)"
         style="fill:#000000;fill-opacity:1;fill-rule:evenodd;stroke:#000000;stroke-width:1pt;stroke-opacity:1"
         d="M 0,0 5,-5 -12.5,0 5,5 Z"
         id="path841" />
    </marker>
    <marker
       style="overflow:visible"
       id="Arrow1Lstart"
       refX="0"
       refY="0"
       orient="auto"
       inkscape:stockid="Arrow1Lstart"
       inkscape:isstock="true">
      <path
         transform="matrix(0.8,0,0,0.8,10,0)"
         style="fill:#000000;fill-opacity:1;fill-rule:evenodd;stroke:#000000;stroke-width:1pt;stroke-opacity:1"
         d="M 0,0 5,-5 -12.5,0 5,5 Z"
         id="path835" />
    </marker>
    <marker
       style="overflow:visible"
       id="Arrow1Mstart-3"
       refX="0"
       refY="0"
       orient="auto"
       inkscape:stockid="Arrow1Mstart"
       inkscape:isstock="true"
       inkscape:collect="always">
      <path
         transform="matrix(0.4,0,0,0.4,4,0)"
         style="fill:#000000;fill-opacity:1;fill-rule:evenodd;stroke:#000000;stroke-width:1pt;stroke-opacity:1"
         d="M 0,0 5,-5 -12.5,0 5,5 Z"
         id="path841-7" />
    </marker>
    <marker
       style="overflow:visible"
       id="Arrow1Mend-5"
       refX="0"
       refY="0"
       orient="auto"
       inkscape:stockid="Arrow1Mend"
       inkscape:isstock="true"
       inkscape:collect="always">
      <path
         transform="matrix(-0.4,0,0,-0.4,-4,0)"
         style="fill:#000000;fill-opacity:1;fill-rule:evenodd;stroke:#000000;stroke-width:1pt;stroke-opacity:1"
         d="M 0,0 5,-5 -12.5,0 5,5 Z"
         id="path844-9" />
    </marker>
    <marker
       style="overflow:visible"
       id="Arrow1Send-6"
       refX="0"
       refY="0"
       orient="auto"
       inkscape:stockid="Arrow1Send"
       inkscape:isstock="true">
      <path
         transform="matrix(-0.2,0,0,-0.2,-1.2,0)"
         style="fill:#cf0000;fill-opacity:1;fill-rule:evenodd;stroke:#cf0000;stroke-width:1pt;stroke-opacity:1"
         d="M 0,0 5,-5 -12.5,0 5,5 Z"
         id="path850-8" />
    </marker>
    <marker
       style="overflow:visible"
       id="Arrow1Send-6-2"
       refX="0"
       refY="0"
       orient="auto"
       inkscape:stockid="Arrow1Send"
       inkscape:isstock="true">
      <path
         transform="matrix(-0.2,0,0,-0.2,-1.2,0)"
         style="fill:#cf0000;fill-opacity:1;fill-rule:evenodd;stroke:#cf0000;stroke-width:1pt;stroke-opacity:1"
         d="M 0,0 5,-5 -12.5,0 5,5 Z"
         id="path850-8-6" />
    </marker>
    <marker
       style="overflow:visible"
       id="Arrow1Send-4"
       refX="0"
       refY="0"
       orient="auto"
       inkscape:stockid="Arrow1Send"
       inkscape:isstock="true">
      <path
         transform="matrix(-0.2,0,0,-0.2,-1.2,0)"
         style="fill:#cf0000;fill-opacity:1;fill-rule:evenodd;stroke:#cf0000;stroke-width:1pt;stroke-opacity:1"
         d="M 0,0 5,-5 -12.5,0 5,5 Z"
         id="path850-9" />
    </marker>
    <marker
       style="overflow:visible"
       id="Arrow1Send-4-0"
       refX="0"
       refY="0"
       orient="auto"
       inkscape:stockid="Arrow1Send"
       inkscape:isstock="true">
      <path
         transform="matrix(-0.2,0,0,-0.2,-1.2,0)"
         style="fill:#cf0000;fill-opacity:1;fill-rule:evenodd;stroke:#cf0000;stroke-width:1pt;stroke-opacity:1"
         d="M 0,0 5,-5 -12.5,0 5,5 Z"
         id="path850-9-4" />
    </marker>
    <marker
       style="overflow:visible"
       id="Arrow1Send-4-0-7"
       refX="0"
       refY="0"
       orient="auto"
       inkscape:stockid="Arrow1Send"
       inkscape:isstock="true">
      <path
         transform="matrix(-0.2,0,0,-0.2,-1.2,0)"
         style="fill:#cf0000;fill-opacity:1;fill-rule:evenodd;stroke:#cf0000;stroke-width:1pt;stroke-opacity:1"
         d="M 0,0 5,-5 -12.5,0 5,5 Z"
         id="path850-9-4-1" />
    </marker>
    <marker
       style="overflow:visible"
       id="Arrow1Send-4-7"
       refX="0"
       refY="0"
       orient="auto"
       inkscape:stockid="Arrow1Send"
       inkscape:isstock="true">
      <path
         transform="matrix(-0.2,0,0,-0.2,-1.2,0)"
         style="fill:#cf0000;fill-opacity:1;fill-rule:evenodd;stroke:#cf0000;stroke-width:1pt;stroke-opacity:1"
         d="M 0,0 5,-5 -12.5,0 5,5 Z"
         id="path850-9-2" />
    </marker>
    <marker
       style="overflow:visible"
       id="Arrow1Send-7"
       refX="0"
       refY="0"
       orient="auto"
       inkscape:stockid="Arrow1Send"
       inkscape:isstock="true">
      <path
         transform="matrix(-0.2,0,0,-0.2,-1.2,0)"
         style="fill:#cf0000;fill-opacity:1;fill-rule:evenodd;stroke:#cf0000;stroke-width:1pt;stroke-opacity:1"
         d="M 0,0 5,-5 -12.5,0 5,5 Z"
         id="path850-2" />
    </marker>
    <marker
       style="overflow:visible"
       id="Arrow1Send-4-06"
       refX="0"
       refY="0"
       orient="auto"
       inkscape:stockid="Arrow1Send"
       inkscape:isstock="true">
      <path
         transform="matrix(-0.2,0,0,-0.2,-1.2,0)"
         style="fill:#cf0000;fill-opacity:1;fill-rule:evenodd;stroke:#cf0000;stroke-width:1pt;stroke-opacity:1"
         d="M 0,0 5,-5 -12.5,0 5,5 Z"
         id="path850-9-1" />
    </marker>
    <marker
       style="overflow:visible"
       id="Arrow1Send-4-06-9"
       refX="0"
       refY="0"
       orient="auto"
       inkscape:stockid="Arrow1Send"
       inkscape:isstock="true">
      <path
         transform="matrix(-0.2,0,0,-0.2,-1.2,0)"
         style="fill:#cf0000;fill-opacity:1;fill-rule:evenodd;stroke:#cf0000;stroke-width:1pt;stroke-opacity:1"
         d="M 0,0 5,-5 -12.5,0 5,5 Z"
         id="path850-9-1-4" />
    </marker>
    <marker
       style="overflow:visible"
       id="marker4162-0"
       refX="0"
       refY="0"
       orient="auto"
       inkscape:stockid="Arrow1Mstart"
       inkscape:isstock="true">
      <path
         transform="matrix(0.4,0,0,0.4,4,0)"
         style="fill:#000000;fill-opacity:1;fill-rule:evenodd;stroke:#000000;stroke-width:1pt;stroke-opacity:1"
         d="M 0,0 5,-5 -12.5,0 5,5 Z"
         id="path4160-9" />
    </marker>
    <marker
       style="overflow:visible"
       id="marker4162-0-1"
       refX="0"
       refY="0"
       orient="auto"
       inkscape:stockid="Arrow1Mstart"
       inkscape:isstock="true">
      <path
         transform="matrix(0.4,0,0,0.4,4,0)"
         style="fill:#000000;fill-opacity:1;fill-rule:evenodd;stroke:#000000;stroke-width:1pt;stroke-opacity:1"
         d="M 0,0 5,-5 -12.5,0 5,5 Z"
         id="path4160-9-1" />
    </marker>
    <marker
       style="overflow:visible"
       id="marker4162-5"
       refX="0"
       refY="0"
       orient="auto"
       inkscape:stockid="Arrow1Mstart"
       inkscape:isstock="true">
      <path
         transform="matrix(0.4,0,0,0.4,4,0)"
         style="fill:#000000;fill-opacity:1;fill-rule:evenodd;stroke:#000000;stroke-width:1pt;stroke-opacity:1"
         d="M 0,0 5,-5 -12.5,0 5,5 Z"
         id="path4160-97" />
    </marker>
    <marker
       style="overflow:visible"
       id="marker4162-5-3"
       refX="0"
       refY="0"
       orient="auto"
       inkscape:stockid="Arrow1Mstart"
       inkscape:isstock="true">
      <path
         transform="matrix(0.4,0,0,0.4,4,0)"
         style="fill:#000000;fill-opacity:1;fill-rule:evenodd;stroke:#000000;stroke-width:1pt;stroke-opacity:1"
         d="M 0,0 5,-5 -12.5,0 5,5 Z"
         id="path4160-97-9" />
    </marker>
    <marker
       style="overflow:visible"
       id="marker4162-5-3-2"
       refX="0"
       refY="0"
       orient="auto"
       inkscape:stockid="Arrow1Mstart"
       inkscape:isstock="true">
      <path
         transform="matrix(0.4,0,0,0.4,4,0)"
         style="fill:#000000;fill-opacity:1;fill-rule:evenodd;stroke:#000000;stroke-width:1pt;stroke-opacity:1"
         d="M 0,0 5,-5 -12.5,0 5,5 Z"
         id="path4160-97-9-9" />
    </marker>
    <marker
       style="overflow:visible"
       id="marker4162-8"
       refX="0"
       refY="0"
       orient="auto"
       inkscape:stockid="Arrow1Mstart"
       inkscape:isstock="true">
      <path
         transform="matrix(0.4,0,0,0.4,4,0)"
         style="fill:#000000;fill-opacity:1;fill-rule:evenodd;stroke:#000000;stroke-width:1pt;stroke-opacity:1"
         d="M 0,0 5,-5 -12.5,0 5,5 Z"
         id="path4160-8" />
    </marker>
    <marker
       style="overflow:visible"
       id="marker4162-8-6"
       refX="0"
       refY="0"
       orient="auto"
       inkscape:stockid="Arrow1Mstart"
       inkscape:isstock="true">
      <path
         transform="matrix(0.4,0,0,0.4,4,0)"
         style="fill:#000000;fill-opacity:1;fill-rule:evenodd;stroke:#000000;stroke-width:1pt;stroke-opacity:1"
         d="M 0,0 5,-5 -12.5,0 5,5 Z"
         id="path4160-8-3" />
    </marker>
    <marker
       style="overflow:visible"
       id="marker4162-1"
       refX="0"
       refY="0"
       orient="auto"
       inkscape:stockid="Arrow1Mstart"
       inkscape:isstock="true">
      <path
         transform="matrix(0.4,0,0,0.4,4,0)"
         style="fill:#000000;fill-opacity:1;fill-rule:evenodd;stroke:#000000;stroke-width:1pt;stroke-opacity:1"
         d="M 0,0 5,-5 -12.5,0 5,5 Z"
         id="path4160-1" />
    </marker>
    <marker
       style="overflow:visible"
       id="marker4162-1-8"
       refX="0"
       refY="0"
       orient="auto"
       inkscape:stockid="Arrow1Mstart"
       inkscape:isstock="true">
      <path
         transform="matrix(0.4,0,0,0.4,4,0)"
         style="fill:#000000;fill-opacity:1;fill-rule:evenodd;stroke:#000000;stroke-width:1pt;stroke-opacity:1"
         d="M 0,0 5,-5 -12.5,0 5,5 Z"
         id="path4160-1-1" />
    </marker>
    <marker
       style="overflow:visible"
       id="marker4162-1-8-4"
       refX="0"
       refY="0"
       orient="auto"
       inkscape:stockid="Arrow1Mstart"
       inkscape:isstock="true">
      <path
         transform="matrix(0.4,0,0,0.4,4,0)"
         style="fill:#000000;fill-opacity:1;fill-rule:evenodd;stroke:#000000;stroke-width:1pt;stroke-opacity:1"
         d="M 0,0 5,-5 -12.5,0 5,5 Z"
         id="path4160-1-1-4" />
    </marker>
    <marker
       style="overflow:visible"
       id="marker4162-6"
       refX="0"
       refY="0"
       orient="auto"
       inkscape:stockid="Arrow1Mstart"
       inkscape:isstock="true">
      <path
         transform="matrix(0.4,0,0,0.4,4,0)"
         style="fill:#000000;fill-opacity:1;fill-rule:evenodd;stroke:#000000;stroke-width:1pt;stroke-opacity:1"
         d="M 0,0 5,-5 -12.5,0 5,5 Z"
         id="path4160-3" />
    </marker>
    <marker
       style="overflow:visible"
       id="marker4162-0-17"
       refX="0"
       refY="0"
       orient="auto"
       inkscape:stockid="Arrow1Mstart"
       inkscape:isstock="true">
      <path
         transform="matrix(0.4,0,0,0.4,4,0)"
         style="fill:#000000;fill-opacity:1;fill-rule:evenodd;stroke:#000000;stroke-width:1pt;stroke-opacity:1"
         d="M 0,0 5,-5 -12.5,0 5,5 Z"
         id="path4160-9-5" />
    </marker>
    <marker
       style="overflow:visible"
       id="marker4162-5-3-2-2"
       refX="0"
       refY="0"
       orient="auto"
       inkscape:stockid="Arrow1Mstart"
       inkscape:isstock="true">
      <path
         transform="matrix(0.4,0,0,0.4,4,0)"
         style="fill:#000000;fill-opacity:1;fill-rule:evenodd;stroke:#000000;stroke-width:1pt;stroke-opacity:1"
         d="M 0,0 5,-5 -12.5,0 5,5 Z"
         id="path4160-97-9-9-1" />
    </marker>
    <marker
       style="overflow:visible"
       id="marker4162-1-85"
       refX="0"
       refY="0"
       orient="auto"
       inkscape:stockid="Arrow1Mstart"
       inkscape:isstock="true">
      <path
         transform="matrix(0.4,0,0,0.4,4,0)"
         style="fill:#000000;fill-opacity:1;fill-rule:evenodd;stroke:#000000;stroke-width:1pt;stroke-opacity:1"
         d="M 0,0 5,-5 -12.5,0 5,5 Z"
         id="path4160-1-7" />
    </marker>
    <marker
       style="overflow:visible"
       id="marker4162-1-85-5"
       refX="0"
       refY="0"
       orient="auto"
       inkscape:stockid="Arrow1Mstart"
       inkscape:isstock="true">
      <path
         transform="matrix(0.4,0,0,0.4,4,0)"
         style="fill:#000000;fill-opacity:1;fill-rule:evenodd;stroke:#000000;stroke-width:1pt;stroke-opacity:1"
         d="M 0,0 5,-5 -12.5,0 5,5 Z"
         id="path4160-1-7-9" />
    </marker>
    <marker
       style="overflow:visible"
       id="marker4162-1-85-5-8"
       refX="0"
       refY="0"
       orient="auto"
       inkscape:stockid="Arrow1Mstart"
       inkscape:isstock="true">
      <path
         transform="matrix(0.4,0,0,0.4,4,0)"
         style="fill:#000000;fill-opacity:1;fill-rule:evenodd;stroke:#000000;stroke-width:1pt;stroke-opacity:1"
         d="M 0,0 5,-5 -12.5,0 5,5 Z"
         id="path4160-1-7-9-8" />
    </marker>
    <marker
       style="overflow:visible"
       id="marker4162-1-85-9"
       refX="0"
       refY="0"
       orient="auto"
       inkscape:stockid="Arrow1Mstart"
       inkscape:isstock="true">
      <path
         transform="matrix(0.4,0,0,0.4,4,0)"
         style="fill:#000000;fill-opacity:1;fill-rule:evenodd;stroke:#000000;stroke-width:1pt;stroke-opacity:1"
         d="M 0,0 5,-5 -12.5,0 5,5 Z"
         id="path4160-1-7-6" />
    </marker>
    <marker
       style="overflow:visible"
       id="marker4162-1-8-8"
       refX="0"
       refY="0"
       orient="auto"
       inkscape:stockid="Arrow1Mstart"
       inkscape:isstock="true">
      <path
         transform="matrix(0.4,0,0,0.4,4,0)"
         style="fill:#000000;fill-opacity:1;fill-rule:evenodd;stroke:#000000;stroke-width:1pt;stroke-opacity:1"
         d="M 0,0 5,-5 -12.5,0 5,5 Z"
         id="path4160-1-1-6" />
    </marker>
    <marker
       style="overflow:visible"
       id="Arrow2Sstart-4"
       refX="0"
       refY="0"
       orient="auto"
       inkscape:stockid="Arrow2Sstart"
       inkscape:isstock="true"
       inkscape:collect="always">
      <path
         transform="matrix(0.3,0,0,0.3,-0.69,0)"
         d="M 8.7185878,4.0337352 -2.2072895,0.01601326 8.7185884,-4.0017078 c -1.7454984,2.3720609 -1.7354408,5.6174519 -6e-7,8.035443 z"
         style="fill:#2100a9;fill-opacity:1;fill-rule:evenodd;stroke:#2100a9;stroke-width:0.625;stroke-linejoin:round;stroke-opacity:1"
         id="path1083-5" />
    </marker>
    <marker
       style="overflow:visible"
       id="Arrow1Send-4-06-9-1"
       refX="0"
       refY="0"
       orient="auto"
       inkscape:stockid="Arrow1Send"
       inkscape:isstock="true"
       inkscape:collect="always">
      <path
         transform="matrix(-0.2,0,0,-0.2,-1.2,0)"
         style="fill:#2100a9;fill-opacity:1;fill-rule:evenodd;stroke:#2100a9;stroke-width:1pt;stroke-opacity:1"
         d="M 0,0 5,-5 -12.5,0 5,5 Z"
         id="path850-9-1-4-0" />
    </marker>
    <marker
       style="overflow:visible"
       id="Arrow2Sstart-02-3"
       refX="0"
       refY="0"
       orient="auto"
       inkscape:stockid="Arrow2Sstart"
       inkscape:isstock="true">
      <path
         transform="matrix(0.3,0,0,0.3,-0.69,0)"
         d="M 8.7185878,4.0337352 -2.2072895,0.01601326 8.7185884,-4.0017078 c -1.7454984,2.3720609 -1.7354408,5.6174519 -6e-7,8.035443 z"
         style="fill:#2100a9;fill-opacity:1;fill-rule:evenodd;stroke:#2100a9;stroke-width:0.625;stroke-linejoin:round;stroke-opacity:1"
         id="path1083-9-7" />
    </marker>
    <marker
       style="overflow:visible"
       id="Arrow1Send-4-06-9-0-8"
       refX="0"
       refY="0"
       orient="auto"
       inkscape:stockid="Arrow1Send"
       inkscape:isstock="true">
      <path
         transform="matrix(-0.2,0,0,-0.2,-1.2,0)"
         style="fill:#2100a9;fill-opacity:1;fill-rule:evenodd;stroke:#2100a9;stroke-width:1pt;stroke-opacity:1"
         d="M 0,0 5,-5 -12.5,0 5,5 Z"
         id="path850-9-1-4-9-8" />
    </marker>
    <marker
       style="overflow:visible"
       id="Arrow2Sstart"
       refX="0"
       refY="0"
       orient="auto"
       inkscape:stockid="Arrow2Sstart"
       inkscape:isstock="true">
      <path
         transform="matrix(0.3,0,0,0.3,-0.69,0)"
         d="M 8.7185878,4.0337352 -2.2072895,0.01601326 8.7185884,-4.0017078 c -1.7454984,2.3720609 -1.7354408,5.6174519 -6e-7,8.035443 z"
         style="fill:#2100a9;fill-opacity:1;fill-rule:evenodd;stroke:#2100a9;stroke-width:0.625;stroke-linejoin:round;stroke-opacity:1"
         id="path1083" />
    </marker>
    <marker
       style="overflow:visible"
       id="Arrow1Send-4-06-9-8"
       refX="0"
       refY="0"
       orient="auto"
       inkscape:stockid="Arrow1Send"
       inkscape:isstock="true">
      <path
         transform="matrix(-0.2,0,0,-0.2,-1.2,0)"
         style="fill:#2100a9;fill-opacity:1;fill-rule:evenodd;stroke:#2100a9;stroke-width:1pt;stroke-opacity:1"
         d="M 0,0 5,-5 -12.5,0 5,5 Z"
         id="path850-9-1-4-97" />
    </marker>
    <marker
       style="overflow:visible"
       id="Arrow2Sstart-02"
       refX="0"
       refY="0"
       orient="auto"
       inkscape:stockid="Arrow2Sstart"
       inkscape:isstock="true">
      <path
         transform="matrix(0.3,0,0,0.3,-0.69,0)"
         d="M 8.7185878,4.0337352 -2.2072895,0.01601326 8.7185884,-4.0017078 c -1.7454984,2.3720609 -1.7354408,5.6174519 -6e-7,8.035443 z"
         style="fill:#2100a9;fill-opacity:1;fill-rule:evenodd;stroke:#2100a9;stroke-width:0.625;stroke-linejoin:round;stroke-opacity:1"
         id="path1083-9" />
    </marker>
    <marker
       style="overflow:visible"
       id="Arrow1Send-4-06-9-0"
       refX="0"
       refY="0"
       orient="auto"
       inkscape:stockid="Arrow1Send"
       inkscape:isstock="true">
      <path
         transform="matrix(-0.2,0,0,-0.2,-1.2,0)"
         style="fill:#2100a9;fill-opacity:1;fill-rule:evenodd;stroke:#2100a9;stroke-width:1pt;stroke-opacity:1"
         d="M 0,0 5,-5 -12.5,0 5,5 Z"
         id="path850-9-1-4-9" />
    </marker>
    <marker
       style="overflow:visible"
       id="Arrow2Sstart-4-8"
       refX="0"
       refY="0"
       orient="auto"
       inkscape:stockid="Arrow2Sstart"
       inkscape:isstock="true">
      <path
         transform="matrix(0.3,0,0,0.3,-0.69,0)"
         d="M 8.7185878,4.0337352 -2.2072895,0.01601326 8.7185884,-4.0017078 c -1.7454984,2.3720609 -1.7354408,5.6174519 -6e-7,8.035443 z"
         style="fill:#2100a9;fill-opacity:1;fill-rule:evenodd;stroke:#2100a9;stroke-width:0.625;stroke-linejoin:round;stroke-opacity:1"
         id="path1083-5-5" />
    </marker>
    <marker
       style="overflow:visible"
       id="Arrow1Send-4-06-9-1-3"
       refX="0"
       refY="0"
       orient="auto"
       inkscape:stockid="Arrow1Send"
       inkscape:isstock="true">
      <path
         transform="matrix(-0.2,0,0,-0.2,-1.2,0)"
         style="fill:#2100a9;fill-opacity:1;fill-rule:evenodd;stroke:#2100a9;stroke-width:1pt;stroke-opacity:1"
         d="M 0,0 5,-5 -12.5,0 5,5 Z"
         id="path850-9-1-4-0-3" />
    </marker>
    <marker
       style="overflow:visible"
       id="Arrow2Sstart-02-3-8"
       refX="0"
       refY="0"
       orient="auto"
       inkscape:stockid="Arrow2Sstart"
       inkscape:isstock="true">
      <path
         transform="matrix(0.3,0,0,0.3,-0.69,0)"
         d="M 8.7185878,4.0337352 -2.2072895,0.01601326 8.7185884,-4.0017078 c -1.7454984,2.3720609 -1.7354408,5.6174519 -6e-7,8.035443 z"
         style="fill:#2100a9;fill-opacity:1;fill-rule:evenodd;stroke:#2100a9;stroke-width:0.625;stroke-linejoin:round;stroke-opacity:1"
         id="path1083-9-7-3" />
    </marker>
    <marker
       style="overflow:visible"
       id="Arrow1Send-4-06-9-0-8-7"
       refX="0"
       refY="0"
       orient="auto"
       inkscape:stockid="Arrow1Send"
       inkscape:isstock="true">
      <path
         transform="matrix(-0.2,0,0,-0.2,-1.2,0)"
         style="fill:#2100a9;fill-opacity:1;fill-rule:evenodd;stroke:#2100a9;stroke-width:1pt;stroke-opacity:1"
         d="M 0,0 5,-5 -12.5,0 5,5 Z"
         id="path850-9-1-4-9-8-9" />
    </marker>
    <marker
       style="overflow:visible"
       id="Arrow2Sstart-6"
       refX="0"
       refY="0"
       orient="auto"
       inkscape:stockid="Arrow2Sstart"
       inkscape:isstock="true">
      <path
         transform="matrix(0.3,0,0,0.3,-0.69,0)"
         d="M 8.7185878,4.0337352 -2.2072895,0.01601326 8.7185884,-4.0017078 c -1.7454984,2.3720609 -1.7354408,5.6174519 -6e-7,8.035443 z"
         style="fill:#2100a9;fill-opacity:1;fill-rule:evenodd;stroke:#2100a9;stroke-width:0.625;stroke-linejoin:round;stroke-opacity:1"
         id="path1083-7" />
    </marker>
    <marker
       style="overflow:visible"
       id="Arrow1Send-4-06-9-6"
       refX="0"
       refY="0"
       orient="auto"
       inkscape:stockid="Arrow1Send"
       inkscape:isstock="true">
      <path
         transform="matrix(-0.2,0,0,-0.2,-1.2,0)"
         style="fill:#2100a9;fill-opacity:1;fill-rule:evenodd;stroke:#2100a9;stroke-width:1pt;stroke-opacity:1"
         d="M 0,0 5,-5 -12.5,0 5,5 Z"
         id="path850-9-1-4-09" />
    </marker>
    <marker
       style="overflow:visible"
       id="Arrow2Sstart-02-7"
       refX="0"
       refY="0"
       orient="auto"
       inkscape:stockid="Arrow2Sstart"
       inkscape:isstock="true">
      <path
         transform="matrix(0.3,0,0,0.3,-0.69,0)"
         d="M 8.7185878,4.0337352 -2.2072895,0.01601326 8.7185884,-4.0017078 c -1.7454984,2.3720609 -1.7354408,5.6174519 -6e-7,8.035443 z"
         style="fill:#2100a9;fill-opacity:1;fill-rule:evenodd;stroke:#2100a9;stroke-width:0.625;stroke-linejoin:round;stroke-opacity:1"
         id="path1083-9-5" />
    </marker>
    <marker
       style="overflow:visible"
       id="Arrow1Send-4-06-9-0-9"
       refX="0"
       refY="0"
       orient="auto"
       inkscape:stockid="Arrow1Send"
       inkscape:isstock="true">
      <path
         transform="matrix(-0.2,0,0,-0.2,-1.2,0)"
         style="fill:#2100a9;fill-opacity:1;fill-rule:evenodd;stroke:#2100a9;stroke-width:1pt;stroke-opacity:1"
         d="M 0,0 5,-5 -12.5,0 5,5 Z"
         id="path850-9-1-4-9-7" />
    </marker>
    <marker
       style="overflow:visible"
       id="Arrow2Sstart-4-3"
       refX="0"
       refY="0"
       orient="auto"
       inkscape:stockid="Arrow2Sstart"
       inkscape:isstock="true">
      <path
         transform="matrix(0.3,0,0,0.3,-0.69,0)"
         d="M 8.7185878,4.0337352 -2.2072895,0.01601326 8.7185884,-4.0017078 c -1.7454984,2.3720609 -1.7354408,5.6174519 -6e-7,8.035443 z"
         style="fill:#2100a9;fill-opacity:1;fill-rule:evenodd;stroke:#2100a9;stroke-width:0.625;stroke-linejoin:round;stroke-opacity:1"
         id="path1083-5-6" />
    </marker>
    <marker
       style="overflow:visible"
       id="Arrow1Send-4-06-9-1-1"
       refX="0"
       refY="0"
       orient="auto"
       inkscape:stockid="Arrow1Send"
       inkscape:isstock="true">
      <path
         transform="matrix(-0.2,0,0,-0.2,-1.2,0)"
         style="fill:#2100a9;fill-opacity:1;fill-rule:evenodd;stroke:#2100a9;stroke-width:1pt;stroke-opacity:1"
         d="M 0,0 5,-5 -12.5,0 5,5 Z"
         id="path850-9-1-4-0-2" />
    </marker>
    <marker
       style="overflow:visible"
       id="Arrow2Sstart-02-3-9"
       refX="0"
       refY="0"
       orient="auto"
       inkscape:stockid="Arrow2Sstart"
       inkscape:isstock="true">
      <path
         transform="matrix(0.3,0,0,0.3,-0.69,0)"
         d="M 8.7185878,4.0337352 -2.2072895,0.01601326 8.7185884,-4.0017078 c -1.7454984,2.3720609 -1.7354408,5.6174519 -6e-7,8.035443 z"
         style="fill:#2100a9;fill-opacity:1;fill-rule:evenodd;stroke:#2100a9;stroke-width:0.625;stroke-linejoin:round;stroke-opacity:1"
         id="path1083-9-7-31" />
    </marker>
    <marker
       style="overflow:visible"
       id="Arrow1Send-4-06-9-0-8-9"
       refX="0"
       refY="0"
       orient="auto"
       inkscape:stockid="Arrow1Send"
       inkscape:isstock="true">
      <path
         transform="matrix(-0.2,0,0,-0.2,-1.2,0)"
         style="fill:#2100a9;fill-opacity:1;fill-rule:evenodd;stroke:#2100a9;stroke-width:1pt;stroke-opacity:1"
         d="M 0,0 5,-5 -12.5,0 5,5 Z"
         id="path850-9-1-4-9-8-4" />
    </marker>
    <marker
       style="overflow:visible"
       id="Arrow2Sstart-4-8-5"
       refX="0"
       refY="0"
       orient="auto"
       inkscape:stockid="Arrow2Sstart"
       inkscape:isstock="true">
      <path
         transform="matrix(0.3,0,0,0.3,-0.69,0)"
         d="M 8.7185878,4.0337352 -2.2072895,0.01601326 8.7185884,-4.0017078 c -1.7454984,2.3720609 -1.7354408,5.6174519 -6e-7,8.035443 z"
         style="fill:#2100a9;fill-opacity:1;fill-rule:evenodd;stroke:#2100a9;stroke-width:0.625;stroke-linejoin:round;stroke-opacity:1"
         id="path1083-5-5-4" />
    </marker>
    <marker
       style="overflow:visible"
       id="Arrow1Send-4-06-9-1-3-7"
       refX="0"
       refY="0"
       orient="auto"
       inkscape:stockid="Arrow1Send"
       inkscape:isstock="true">
      <path
         transform="matrix(-0.2,0,0,-0.2,-1.2,0)"
         style="fill:#2100a9;fill-opacity:1;fill-rule:evenodd;stroke:#2100a9;stroke-width:1pt;stroke-opacity:1"
         d="M 0,0 5,-5 -12.5,0 5,5 Z"
         id="path850-9-1-4-0-3-6" />
    </marker>
    <marker
       style="overflow:visible"
       id="Arrow1Sstart-6"
       refX="0"
       refY="0"
       orient="auto"
       inkscape:stockid="Arrow1Sstart"
       inkscape:isstock="true">
      <path
         transform="matrix(0.2,0,0,0.2,1.2,0)"
         style="fill:#2100a9;fill-opacity:1;fill-rule:evenodd;stroke:#2100a9;stroke-width:1pt;stroke-opacity:1"
         d="M 0,0 5,-5 -12.5,0 5,5 Z"
         id="path29132-9" />
    </marker>
    <marker
       style="overflow:visible"
       id="marker30174-3"
       refX="0"
       refY="0"
       orient="auto"
       inkscape:stockid="Arrow1Send"
       inkscape:isstock="true">
      <path
         transform="matrix(-0.2,0,0,-0.2,-1.2,0)"
         style="fill:#2100a9;fill-opacity:1;fill-rule:evenodd;stroke:#2100a9;stroke-width:1pt;stroke-opacity:1"
         d="M 0,0 5,-5 -12.5,0 5,5 Z"
         id="path30172-7" />
    </marker>
  </defs>
  <sodipodi:namedview
     id="base"
     pagecolor="#ffffff"
     bordercolor="#666666"
     borderopacity="1.0"
     inkscape:pageopacity="0.0"
     inkscape:pageshadow="2"
     inkscape:zoom="1.979899"
     inkscape:cx="375.30725"
     inkscape:cy="195.56608"
     inkscape:document-units="mm"
     inkscape:current-layer="layer4"
     inkscape:document-rotation="0"
     showgrid="false"
     inkscape:window-width="1916"
     inkscape:window-height="1036"
     inkscape:window-x="0"
     inkscape:window-y="20"
     inkscape:window-maximized="1"
     inkscape:snap-midpoints="false"
     inkscape:snap-intersection-paths="false"
     inkscape:snap-object-midpoints="false"
     inkscape:snap-smooth-nodes="false" />
  <metadata
     id="metadata1669">
    <rdf:RDF>
      <cc:Work
         rdf:about="">
        <dc:format>image/svg+xml</dc:format>
        <dc:type
           rdf:resource="http://purl.org/dc/dcmitype/StillImage" />
        <dc:title></dc:title>
      </cc:Work>
    </rdf:RDF>
  </metadata>
  <g
     inkscape:label="Graph"
     inkscape:groupmode="layer"
     id="layer1"
     style="display:inline"
     transform="translate(-15.906703,-83.074597)">
    <g
       id="g23554">
      <path
         style="fill:none;stroke:#000000;stroke-width:0.75;stroke-linecap:butt;stroke-linejoin:miter;stroke-miterlimit:4;stroke-dasharray:none;stroke-opacity:1;marker-start:url(#Arrow1Mstart);marker-end:url(#Arrow1Mend)"
         d="M 88.663081,90.314001 V 173.52985"
         id="path833" />
      <path
         style="fill:none;stroke:#000000;stroke-width:0.750001;stroke-linecap:butt;stroke-linejoin:miter;stroke-miterlimit:4;stroke-dasharray:none;stroke-opacity:1;marker-start:url(#Arrow1Mstart-3);marker-end:url(#Arrow1Mend-5)"
         d="M 47.055155,131.90088 H 130.27101"
         id="path833-2" />
      <text
         xml:space="preserve"
         style="font-size:4.23333px;line-height:1.25;font-family:sans-serif;text-align:center;letter-spacing:0px;word-spacing:0px;text-anchor:middle;stroke-width:0.264583"
         x="135.42735"
         y="133.46498"
         id="text1452"><tspan
           sodipodi:role="line"
           id="tspan1450"
           x="135.42735"
           y="133.46498"
           style="font-style:normal;font-variant:normal;font-weight:normal;font-stretch:normal;font-family:serif;-inkscape-font-specification:serif;stroke-width:0.264583">I</tspan></text>
      <text
         xml:space="preserve"
         style="font-size:4.23333px;line-height:1.25;font-family:sans-serif;text-align:center;letter-spacing:0px;word-spacing:0px;text-anchor:middle;stroke-width:0.264583"
         x="88.662048"
         y="86.216522"
         id="text1452-9-4"><tspan
           sodipodi:role="line"
           id="tspan1450-3-5"
           x="88.662048"
           y="86.216522"
           style="font-style:normal;font-variant:normal;font-weight:normal;font-stretch:normal;font-family:serif;-inkscape-font-specification:serif;stroke-width:0.264583">Q</tspan></text>
    </g>
  </g>
  <g
     inkscape:groupmode="layer"
     id="layer2"
     inkscape:label="Constellation"
     transform="translate(-15.906703,-83.074597)">
    <circle
       style="opacity:0.994;fill:#cf0000;fill-opacity:1;stroke:#cf0000;stroke-width:0.749999;stroke-linecap:round;stroke-miterlimit:4;stroke-dasharray:none;stroke-opacity:1"
       id="path2447-4"
       cx="153.46272"
       cy="-110.22494"
       r="1.0361111"
       transform="rotate(90)" />
    <circle
       style="opacity:0.994;fill:#cf0000;fill-opacity:1;stroke:#cf0000;stroke-width:0.749999;stroke-linecap:round;stroke-miterlimit:4;stroke-dasharray:none;stroke-opacity:1"
       id="path2447-7-9"
       cx="110.33902"
       cy="-110.22493"
       r="1.0361111"
       transform="rotate(90)" />
    <circle
       style="opacity:0.994;fill:#cf0000;fill-opacity:1;stroke:#cf0000;stroke-width:0.749999;stroke-linecap:round;stroke-miterlimit:4;stroke-dasharray:none;stroke-opacity:1"
       id="path2447-7-3-2"
       cx="110.33904"
       cy="-67.101242"
       r="1.0361111"
       transform="rotate(90)" />
    <circle
       style="opacity:0.994;fill:#cf0000;fill-opacity:1;stroke:#cf0000;stroke-width:0.749999;stroke-linecap:round;stroke-miterlimit:4;stroke-dasharray:none;stroke-opacity:1"
       id="path2447-7-3-1-0"
       cx="153.46272"
       cy="-67.101234"
       r="1.0361111"
       transform="rotate(90)" />
  </g>
  <g
     inkscape:groupmode="layer"
     id="layer4"
     inkscape:label="Annotations"
     transform="translate(-15.906703,-83.074597)">
    <path
       style="fill:none;stroke:#000000;stroke-width:0.264583px;stroke-linecap:butt;stroke-linejoin:miter;stroke-opacity:1;marker-start:url(#marker4162-0)"
       d="m 112.419,107.68594 c 2.27991,-2.29976 4.33498,-2.81537 6.25084,-2.99859"
       id="path4158-1"
       sodipodi:nodetypes="cc" />
    <text
       xml:space="preserve"
       style="font-size:4.23333px;line-height:1.25;font-family:sans-serif;text-align:center;letter-spacing:0px;word-spacing:0px;text-anchor:middle;stroke-width:0.264583"
       x="125.88144"
       y="106.11581"
       id="text4280-7"><tspan
         sodipodi:role="line"
         id="tspan4278-7"
         x="125.88144"
         y="106.11581"
         style="stroke-width:0.264583">θ=π/4</tspan></text>
    <text
       xml:space="preserve"
       style="font-size:4.23333px;line-height:1.25;font-family:sans-serif;text-align:center;letter-spacing:0px;word-spacing:0px;text-anchor:middle;stroke-width:0.264583"
       x="49.990669"
       y="106.11581"
       id="text4280-7-5"><tspan
         sodipodi:role="line"
         id="tspan4278-7-6"
         x="49.990669"
         y="106.11581"
         style="stroke-width:0.264583">θ=3π/4</tspan></text>
    <text
       xml:space="preserve"
       style="font-size:4.23333px;line-height:1.25;font-family:sans-serif;text-align:center;letter-spacing:0px;word-spacing:0px;text-anchor:middle;stroke-width:0.264583"
       x="49.990669"
       y="162.59335"
       id="text4280-6-8"><tspan
         sodipodi:role="line"
         id="tspan4278-73-1"
         x="49.990669"
         y="162.59335"
         style="stroke-width:0.264583">θ=5π/4</tspan></text>
    <path
       style="fill:none;stroke:#000000;stroke-width:0.264583px;stroke-linecap:butt;stroke-linejoin:miter;stroke-opacity:1;marker-start:url(#marker4162-5-3-2)"
       d="m 112.45979,154.68763 c 1.9165,4.03698 3.71383,6.40334 6.21078,6.62812"
       id="path4158-7-4-3"
       sodipodi:nodetypes="cc" />
    <text
       xml:space="preserve"
       style="font-size:4.23333px;line-height:1.25;font-family:sans-serif;text-align:center;letter-spacing:0px;word-spacing:0px;text-anchor:middle;stroke-width:0.264583"
       x="127.22813"
       y="162.59335"
       id="text4280-6-8-9"><tspan
         sodipodi:role="line"
         id="tspan4278-73-1-0"
         x="127.22813"
         y="162.59335"
         style="stroke-width:0.264583">θ=7π/4</tspan></text>
    <path
       style="fill:none;stroke:#000000;stroke-width:0.264583px;stroke-linecap:butt;stroke-linejoin:miter;stroke-opacity:1;marker-start:url(#marker4162-0-17)"
       d="m 64.771436,107.68594 c -2.27991,-2.29976 -4.33498,-2.81537 -6.25084,-2.99859"
       id="path4158-1-6"
       sodipodi:nodetypes="cc" />
    <path
       style="fill:none;stroke:#000000;stroke-width:0.264583px;stroke-linecap:butt;stroke-linejoin:miter;stroke-opacity:1;marker-start:url(#marker4162-5-3-2-2)"
       d="m 64.730643,154.68763 c -1.9165,4.03698 -3.71383,6.40334 -6.21078,6.62812"
       id="path4158-7-4-3-7"
       sodipodi:nodetypes="cc" />
    <g
       id="g30768">
      <path
         style="fill:none;stroke:#2100a9;stroke-width:0.5;stroke-linecap:round;stroke-linejoin:miter;stroke-miterlimit:4;stroke-dasharray:none;stroke-opacity:1;marker-start:url(#Arrow2Sstart-02);marker-end:url(#Arrow1Send-4-06-9-0)"
         d="m 111.74676,150.59488 c 2.5406,-18.93072 2.53673,-18.92776 0,-37.04751"
         id="path2925-5-5-9-9"
         sodipodi:nodetypes="cc" />
      <path
         style="fill:none;stroke:#2100a9;stroke-width:0.5;stroke-linecap:round;stroke-linejoin:miter;stroke-miterlimit:4;stroke-dasharray:none;stroke-opacity:1;marker-start:url(#Arrow2Sstart-4);marker-end:url(#Arrow1Send-4-06-9-1)"
         d="m 107.27054,154.93977 c -18.93072,2.5406 -18.92776,2.53673 -37.04751,0"
         id="path2925-5-5-9-0"
         sodipodi:nodetypes="cc" />
      <path
         style="fill:none;stroke:#2100a9;stroke-width:0.499999;stroke-linecap:round;stroke-linejoin:miter;stroke-miterlimit:4;stroke-dasharray:none;stroke-opacity:1;marker-start:url(#Arrow2Sstart-02-7);marker-end:url(#Arrow1Send-4-06-9-0-9)"
         d="m 65.579408,113.3806 c -2.5406,18.93072 -2.53673,18.92776 0,37.04751"
         id="path2925-5-5-9-9-8"
         sodipodi:nodetypes="cc" />
      <path
         style="fill:none;stroke:#2100a9;stroke-width:0.5;stroke-linecap:round;stroke-linejoin:miter;stroke-miterlimit:4;stroke-dasharray:none;stroke-opacity:1;marker-start:url(#Arrow2Sstart-4-8);marker-end:url(#Arrow1Send-4-06-9-1-3)"
         d="m 70.05561,108.90408 c 18.93072,-2.5406 18.92776,-2.53673 37.04751,0"
         id="path2925-5-5-9-0-4"
         sodipodi:nodetypes="cc" />
    </g>
    <path
       style="fill:none;stroke:#2100a9;stroke-width:0.5;stroke-linecap:butt;stroke-linejoin:miter;stroke-miterlimit:4;stroke-dasharray:none;stroke-opacity:1;marker-start:url(#Arrow1Sstart);marker-end:url(#marker30174)"
       d="m 69.512491,112.76365 38.301189,38.31656"
       id="path28736" />
    <path
       style="fill:none;stroke:#2100a9;stroke-width:0.5;stroke-linecap:butt;stroke-linejoin:miter;stroke-miterlimit:4;stroke-dasharray:none;stroke-opacity:1;marker-start:url(#Arrow1Sstart-6);marker-end:url(#marker30174-3)"
       d="M 107.81368,112.76365 69.512491,151.0802"
       id="path28736-4" />
  </g>
  <g
     inkscape:groupmode="layer"
     id="layer3"
     inkscape:label="Construction"
     style="display:none"
     transform="translate(-15.906703,-83.074597)">
    <circle
       style="opacity:0.994;fill:none;fill-opacity:1;stroke:#000000;stroke-width:0.750001;stroke-linecap:round;stroke-miterlimit:4;stroke-dasharray:none;stroke-opacity:1"
       id="path2749"
       cx="88.663086"
       cy="131.90088"
       r="30.493055" />
  </g>
</svg>
