<?xml version="1.0" encoding="UTF-8" standalone="no"?>
<!-- Created with Inkscape (http://www.inkscape.org/) -->

<svg
   width="12mm"
   height="20mm"
   viewBox="0 0 12 20"
   version="1.1"
   id="svg1311"
   inkscape:version="1.3 (0e150ed6c4, 2023-07-21)"
   sodipodi:docname="inductor.svg"
   xml:space="preserve"
   xmlns:inkscape="http://www.inkscape.org/namespaces/inkscape"
   xmlns:sodipodi="http://sodipodi.sourceforge.net/DTD/sodipodi-0.dtd"
   xmlns="http://www.w3.org/2000/svg"
   xmlns:svg="http://www.w3.org/2000/svg"><sodipodi:namedview
     id="namedview1313"
     pagecolor="#ffffff"
     bordercolor="#666666"
     borderopacity="1.0"
     inkscape:pageshadow="2"
     inkscape:pageopacity="0.0"
     inkscape:pagecheckerboard="0"
     inkscape:document-units="mm"
     showgrid="true"
     inkscape:zoom="4.4548521"
     inkscape:cx="34.456812"
     inkscape:cy="37.374979"
     inkscape:window-width="1920"
     inkscape:window-height="1017"
     inkscape:window-x="-8"
     inkscape:window-y="-8"
     inkscape:window-maximized="1"
     inkscape:current-layer="layer1"
     inkscape:showpageshadow="2"
     inkscape:deskcolor="#d1d1d1"><inkscape:grid
       id="grid1"
       units="mm"
       originx="0"
       originy="0"
       spacingx="0.99999997"
       spacingy="0.99999997"
       empcolor="#3f3fff"
       empopacity="0.25098039"
       color="#3f3fff"
       opacity="0.1254902"
       empspacing="5"
       dotted="false"
       gridanglex="30"
       gridanglez="30"
       visible="true" /></sodipodi:namedview><defs
     id="defs1308" /><g
     inkscape:label="inductor"
     inkscape:groupmode="layer"
     id="layer1"
     transform="translate(-94.088227,-103.56339)"><path
       style="fill:none;stroke:#000000;stroke-width:0.75;stroke-linecap:round;stroke-linejoin:miter;stroke-dasharray:none;stroke-opacity:1"
       d="m 97.088227,104.56339 v 3"
       id="path1-1-8"
       inkscape:label="lead"
       sodipodi:nodetypes="cc" /><path
       style="fill:none;stroke:#000000;stroke-width:0.75;stroke-linecap:round;stroke-linejoin:miter;stroke-dasharray:none;stroke-opacity:1"
       d="m 97.088227,119.56339 v 3"
       id="path1-2-8"
       inkscape:label="lead"
       sodipodi:nodetypes="cc" /><g
       id="g11"
       inkscape:label="inductor"><path
         id="path11-0-9-1"
         style="fill:none;stroke:#000000;stroke-width:0.75;stroke-linecap:butt;stroke-linejoin:round;stroke-dasharray:none;stroke-opacity:1"
         d="m 97.088227,119.56339 c -1.000003,-0.32666 -2.000003,-1 -2.000003,-2 0,-1 1.45404,-2 3.000003,-2 1.54596,0 2.000003,0.62053 2.000003,1 0,0.37947 -0.432543,1.00742 -2.000003,1 -1.567462,-0.007 -3.000003,-1 -3.000003,-2.5 0,-1.5 1.45404,-2.5 3.000003,-2.5 1.54596,0 2.000003,0.62053 2.000003,1 0,0.37947 -0.569533,1 -2.000003,1 -1.430467,0 -3.000003,-1 -3.000003,-2.5 0,-1.5 1.487095,-2.5 3.000003,-2.5 1.5129,0 2.000003,0.62053 2.000003,1 0,0.37947 -0.496043,1 -2.000003,1 -1.503965,0 -3.000003,-1 -3.000003,-2 0,-1 1,-1.61395 2.000003,-2"
         sodipodi:nodetypes="cssscssszszsssc"
         inkscape:label="body" /></g><text
       xml:space="preserve"
       style="font-size:4.99999px;line-height:1.25;font-family:Calibri;-inkscape-font-specification:Calibri;letter-spacing:0px;word-spacing:0px;stroke-width:0.264583"
       x="101.08823"
       y="115.56339"
       id="text2-4"
       inkscape:label="name"><tspan
         sodipodi:role="line"
         id="tspan2-4"
         style="font-style:normal;font-variant:normal;font-weight:600;font-stretch:normal;font-family:Barlow;-inkscape-font-specification:'Barlow Semi-Bold';stroke-width:0.264583"
         x="101.08823"
         y="115.56339">L?</tspan></text></g></svg>
